<?xml version="1.0" standalone="no"?>
<!DOCTYPE svg PUBLIC "-//W3C//DTD SVG 1.1//EN"
  "http://www.w3.org/Graphics/SVG/1.1/DTD/svg11.dtd">
<svg version="1.1" xmlns="http://www.w3.org/2000/svg" xmlns:xlink="http://www.w3.org/1999/xlink" width="1920" height="1080" viewBox="-1040.888888888889 -32 1889.7777777777778 1063" id="ccdiagram"><filter id="grayscale"><feColorMatrix type="matrix" values="0.3333 0.3333 0.3333 0 0 0.3333 0.3333 0.3333 0 0 0.3333 0.3333 0.3333 0 0 0 0 0 1 0"></feColorMatrix></filter><defs><style type="text/css">@import url('https://fonts.googleapis.com/css?family=Open+Sans:400,700|Inconsolata:400');</style></defs><g><rect x="-1040.888888888889" y="-32" width="1889.7777777777778" height="1063" fill="#ffffff" id="interactionLayer"></rect><g style="pointer-events: none;"><g><pattern id="gridPatternMinor" x="0" y="37" width="128" height="74" patternUnits="userSpaceOnUse"><path d="M 0 0 L 128 74" stroke="#eeeeee" stroke-width="1"></path><path d="M 128 0 L 0 74" stroke="#eeeeee" stroke-width="1"></path></pattern><polygon points="0 0, 768 444, -192 999, -960 555" fill="url(#gridPatternMinor)"></polygon></g><polygon points="-960 555, -960 565, -192 1009, -192 999" stroke="#54626f" fill="#f9f9f9" stroke-linejoin="round" stroke-width="1"></polygon><polygon points="-192 1009, 768 454, 768 444, -192 999" stroke="#54626f" fill="#e2e2e2" stroke-linejoin="round" stroke-width="1"></polygon></g><g pointer-events="auto"><g opacity="1"><g><g><polygon points="64 174, 464 405, 464 442, 176 609, 112 609, -288 377, -288 340, 0 174" fill="#000000" opacity="0.3"></polygon><polygon points="64 167, 464 398, 464 435, 176 601, 112 601, -288 370, -288 333, 0 167" fill="#03a9f4" stroke-width="0" stroke="#03a9f4"></polygon><polygon points="32 185, 432 416, 144 583, -256 352" fill="#03a9f4"></polygon></g></g></g><g opacity="1"><g><g><polygon points="64 174, 36 190, -40 270, -80 283, -144 283, -176 239, 0 137" fill="#000000" opacity="0.3"></polygon><polygon points="64 167, 36 182, -40 262, -80 276, -144 276, -176 231, 0 130" fill="#03a9f4" stroke-width="0" stroke="#03a9f4"></polygon><polygon points="32 148, 0 167, -80 250, -144 250" fill="#03a9f4"></polygon></g></g></g><g opacity="1"><g><g><polygon points="64 185, 432 398, 432 435, 176 583, 112 583, -256 370, -256 333, 0 185" fill="#ffffff" stroke-width="2" stroke="rgba(0, 0, 0, 0)"></polygon><polygon points="32 204, 400 416, 144 564, -224 352" fill="rgba(0, 0, 0, 0)"></polygon></g></g></g></g><g style="pointer-events: none;"><g><pattern id="gridPatternMajor" x="0" y="37" width="128" height="74" patternUnits="userSpaceOnUse"><path d="M 64 0 L 128 37 64 74 0 37 z" stroke="#54626f" stroke-width="1" fill="none"></path></pattern><polygon points="0 0, 768 444, -192 999, -960 555" fill="url(#gridPatternMajor)"></polygon></g></g><g pointer-events="auto"></g><g pointer-events="auto"></g><g></g><g pointer-events="auto"></g><g></g><g pointer-events="auto"></g><g pointer-events="auto"></g><g pointer-events="none"></g><g pointer-events="auto"><g id="3c34e85c-7a99-417f-a0f3-e05d71ffaee2-28c4bac8-a0a5-49ef-b352-49a4f569ae2e"><g cursor="cell"><line x1="-408" y1="513" x2="-346" y2="477" stroke="red" stroke-width="8" opacity="0"></line><line x1="-408" y1="513" x2="-346" y2="477" stroke="#673ab7" stroke-width="2" stroke-linecap="round"></line><polygon points="-336 472, -362 477, -348 479, -345 487, -336 472" stroke-linejoin="round" fill="#673ab7" stroke="#673ab7" stroke-width="1"></polygon></g></g><g id="28c4bac8-a0a5-49ef-b352-49a4f569ae2e-ae9e97ef-cad1-471e-b916-aa9bad2ed2c6"><g cursor="cell"><line x1="-255" y1="425" x2="-150" y2="364" stroke="red" stroke-width="8" opacity="0"></line><line x1="-255" y1="425" x2="-150" y2="364" stroke="#673ab7" stroke-width="2" stroke-linecap="round"></line><polygon points="-141 359, -166 364, -153 366, -150 374, -141 359" stroke-linejoin="round" fill="#673ab7" stroke="#673ab7" stroke-width="1"></polygon></g></g><g id="ae9e97ef-cad1-471e-b916-aa9bad2ed2c6-13da1f01-d017-486e-b4ea-1c2772270d88"><g cursor="cell"><line x1="-86" y1="327" x2="6" y2="274" stroke="red" stroke-width="8" opacity="0"></line><line x1="-86" y1="327" x2="6" y2="274" stroke="#000000" stroke-width="2" stroke-linecap="round"></line><polygon points="-96 333, -70 328, -84 326, -87 318, -96 333" stroke-linejoin="round" fill="#000000" stroke="#000000" stroke-width="1"></polygon><polygon points="16 268, -10 274, 4 275, 7 283, 16 268" stroke-linejoin="round" fill="#000000" stroke="#000000" stroke-width="1"></polygon></g></g><g id="13da1f01-d017-486e-b4ea-1c2772270d88-f117ae3c-bfde-4eda-b37c-7dc02138dc64"><g cursor="cell"><line x1="80" y1="268" x2="262" y2="374" stroke="red" stroke-width="8" opacity="0"></line><line x1="80" y1="268" x2="262" y2="374" stroke="#000000" stroke-width="2" stroke-linecap="round"></line><polygon points="272 379, 263 364, 260 372, 246 374, 272 379" stroke-linejoin="round" fill="#000000" stroke="#000000" stroke-width="1"></polygon></g></g><g id="7d225ac5-7844-443b-be66-7d0e1f60afd7-3c34e85c-7a99-417f-a0f3-e05d71ffaee2"><g cursor="cell"><line x1="-515" y1="577" x2="-473" y2="551" stroke="red" stroke-width="8" opacity="0"></line><line x1="-515" y1="577" x2="-473" y2="551" stroke="#673ab7" stroke-width="2" stroke-linecap="round"></line><polygon points="-464 546, -489 552, -476 553, -472 561, -464 546" stroke-linejoin="round" fill="#673ab7" stroke="#673ab7" stroke-width="1"></polygon></g></g><g id="7d225ac5-7844-443b-be66-7d0e1f60afd7-1a37b14e-2dc8-4d4a-bd70-e5cc1f1768ee"><g cursor="cell"><line x1="-539" y1="591" x2="-578" y2="612" stroke="red" stroke-width="8" opacity="0"></line><line x1="-539" y1="591" x2="-578" y2="612" stroke="#673ab7" stroke-width="2" stroke-linecap="round"></line><polygon points="-588 618, -562 613, -575 611, -578 603, -588 618" stroke-linejoin="round" fill="#673ab7" stroke="#673ab7" stroke-width="1"></polygon></g></g></g><g pointer-events="auto"><g opacity="1"><g id="13da1f01-d017-486e-b4ea-1c2772270d88" transform="translate(0 0)"><svg x="-16" y="176" width="128" height="111" fill-rule="evenodd" stroke-linejoin="round" stroke-miterlimit="1.414"><path fill="#2d682f" d="M64 74v37l64-37V37L64 74Z"></path><path fill="#3d8b40" d="M0 37v37l64 37V74L0 37Z"></path><path fill="#4caf50" d="M0 37 64 0l64 37-64 37L0 37Z"></path><path fill="#0e210f" d="m64 73.407 62.111-35.86.514.889-62.487 36.078h-.276L.743 38.072l.514-.89L64 73.407Z"></path><path fill="#0e210f" d="M63.486 74h1.027v36h-1.027z"></path><path fill="#000000" d="M128 37v37l-64 37L0 74V37L64 0l64 37ZM2.054 38.185v34.63L64 108.627l61.946-35.812v-34.63L64 2.373 2.054 38.185Z"></path></svg><svg x="42" y="194" width="54" height="36" style="overflow: visible; cursor: default;"><rect transform="matrix(0.707 0.409 -0.707 0.409 0 0)" width="54" height="36" rx="5" ry="5" fill="#4286c5"></rect><text transform="matrix(0.707 0.409 -0.707 0.409 0 0)" font-family="Open Sans" text-anchor="middle" x="50%" font-weight="normal" font-size="20pt" y="80%" fill="#ffffff"><tspan>T3</tspan></text></svg></g></g><g opacity="1"><g id="f117ae3c-bfde-4eda-b37c-7dc02138dc64" transform="translate(0 0)"><svg x="272" y="315" width="128" height="137.556" viewBox="0 0 33.867 36.395"><g fill="#4286c5" stroke-width=".265" font-family="sans-serif" font-size="3.175"><path fill="#ee3900" d="M.187 12.17v14.365l16.587 9.576-.002-14.363-4.146-7.183-8.292-4.788z"></path><path fill="#bb2d00" d="m20.956 14.565 8.292-4.788 4.145 2.394.001 14.364-16.587 9.577.001-14.365z"></path><path fill="#ff5722" d="m4.333 9.777 8.292 4.787h8.295l8.292-4.787v-4.79L20.92.202h-8.294L4.334 4.988zm8.524 4.788h8.293l-4.148 7.182z"></path><path fill="#ee3900" d="m4.393 4.806.002 4.789-4.148 2.393zm24.82 4.788-.001-4.788 4.146 7.182z"></path><path fill="none" stroke="#551400" d="m208.47 90.288 4.345-4.346 4.346 8.693z" transform="matrix(.95417 .55084 -.95417 .55084 -100.053 -150.003)" stroke-linejoin="round" stroke-width=".264"></path><path fill="none" stroke="#551400" d="m199.734 94.678 13.037 13.037h17.383L217.117 94.68l-8.692-4.347h-8.69zm13.085-8.75v-8.69h4.345l13.037 13.037.001 17.382-13.037-13.037zm-13.085 4.405h8.69l4.347-4.346v-8.69l-4.347-4.347h-8.69l-4.346 4.346v8.69z" transform="matrix(.95417 .55084 -.95417 .55084 -100.053 -150.003)" stroke-linejoin="round" stroke-width=".257"></path><path fill="none" stroke="#000000" d="m212.855 107.631-13.037-13.037-4.346-8.692v-8.69l4.346-4.347h8.69l8.692 4.346 13.038 13.038v17.383z" transform="matrix(.95417 .55084 -.95417 .55084 -100.053 -150.003)" stroke-width=".514"></path><g><path d="M207.115 83.04q0 1.475-1.065 2.324-1.058.85-2.95.85-1.744 0-3.086-.656v-2.146q1.103.492 1.863.693.768.201 1.4.201.761 0 1.163-.29.41-.291.41-.865 0-.32-.179-.566-.179-.253-.529-.484-.342-.231-1.408-.738-.998-.47-1.498-.902-.499-.432-.797-1.005-.298-.574-.298-1.342 0-1.445.976-2.272.984-.827 2.712-.827.85 0 1.617.2.775.202 1.617.567l-.745 1.796q-.872-.358-1.446-.5-.566-.141-1.117-.141-.656 0-1.006.306-.35.305-.35.797 0 .305.141.536.142.224.447.44.313.209 1.468.76 1.528.73 2.094 1.468.566.73.566 1.796z" transform="scale(1.31608 .75983) rotate(45 193.778 -185.11)" font-family="Open Sans" font-size="14.883"></path></g></g></svg></g></g><g opacity="1"><g id="ae9e97ef-cad1-471e-b916-aa9bad2ed2c6" transform="translate(0 0)"><svg x="-179" y="250" width="100.625" height="115.695" viewBox="0 0 26.624 30.611"><path fill="#ff9800" d="M13.312.306v15l12.99-7.5z" fill-rule="evenodd"></path><path fill="#995b00" d="m.321 7.806 12.99 7.5v-15z" fill-rule="evenodd"></path><path fill="none" stroke="#000" d="M13.312.306v15" stroke-width=".265"></path><path fill="#995b00" d="m13.312 15.306 12.99-7.5-6.495 18.75-6.495 3.75z" fill-rule="evenodd"></path><path fill="#cc7a00" d="m.321 7.806 12.99 7.5v15l-6.494-3.75z" fill-rule="evenodd"></path><path fill="none" stroke="#331e00" d="m.321 7.806 12.99 7.5 12.991-7.5-12.99 7.5v15" stroke-width=".265"></path><path fill="none" stroke="#000000" d="m13.312.306-12.99 7.5 6.495 18.75 6.495 3.75 6.495-3.75 6.495-18.75z" stroke-width=".529"></path></svg></g></g><g opacity="1"><g id="28c4bac8-a0a5-49ef-b352-49a4f569ae2e" transform="translate(0 0)"><svg x="-352" y="388" width="97" height="94" fill-rule="evenodd" stroke-miterlimit="1"><path fill="#4caf50" d="M0 18.6v18.6l32.333 18.6h32.334L97 37.2V18.6L64.667 0H32.333L0 18.6Z"></path><path fill="#2d682f" d="M64.667 55.8 97 37.2v37.2L64.667 93V55.8Z"></path><path fill="#3d8b40" d="M32.333 55.8h32.334V93H32.333V55.8ZM0 37.2v37.2L32.333 93V55.8L0 37.2Z"></path><path fill="none" stroke="#0e210f" d="M.955 37.877 32.333 55.8h32.334l31.378-17.923M32.333 55.8v36.211M64.667 55.8v36.574" stroke-width="1.04"></path><path fill="#000000" d="M97 18.6v55.8L64.667 93H32.333L0 74.4V18.6L32.333 0h32.334L97 18.6ZM32.865 1.989 1.989 19.751v53.498l30.876 17.762h31.27l30.876-17.762V19.751L64.135 1.989h-31.27Z"></path><path fill="#4286c5" d="M69.912 15.583c11.818 6.798 11.818 17.836 0 24.635-11.817 6.798-31.007 6.798-42.824 0-11.818-6.799-11.818-17.837 0-24.635 11.817-6.799 31.007-6.799 42.824 0Z"></path><path fill="#ffffff" d="M49.584 14.774c1.824 1.049 1.824 2.753 0 3.802-1.824 1.05-4.786 1.05-6.61 0-1.824-1.049-1.824-2.753 0-3.802 1.824-1.05 4.786-1.05 6.61 0Zm10.867 6.251c1.825 1.049 1.825 2.753 0 3.803-1.824 1.049-4.786 1.049-6.61 0-1.824-1.05-1.824-2.754 0-3.803s4.786-1.049 6.61 0Zm10.868 6.251c1.824 1.05 1.824 2.754 0 3.803-1.825 1.049-4.787 1.049-6.611 0-1.824-1.049-1.824-2.753 0-3.803 1.824-1.049 4.786-1.049 6.611 0Zm-32.822 6.378c1.824 1.05 1.824 2.754 0 3.803-1.825 1.05-4.787 1.05-6.611 0-1.824-1.049-1.824-2.753 0-3.803 1.824-1.049 4.786-1.049 6.611 0Z"></path><path fill="#ffffff" d="M47.458 15.878c.453.26.393.717-.133 1.02-.526.303-1.32.337-1.773.076-.452-.26-.392-.717.133-1.019.526-.303 1.321-.337 1.773-.077Z"></path><path fill="#4286c5" d="M48.111 15.621c1.012.582 1.012 1.526 0 2.108-1.011.582-2.653.582-3.664 0-1.012-.582-1.012-1.526 0-2.108 1.011-.582 2.653-.582 3.664 0Zm10.867 6.251c1.012.582 1.012 1.527 0 2.108-1.011.582-2.653.582-3.664 0-1.012-.581-1.012-1.526 0-2.108 1.011-.581 2.653-.581 3.664 0Zm10.868 6.252c1.011.581 1.011 1.526 0 2.108-1.012.582-2.654.582-3.665 0-1.011-.582-1.011-1.527 0-2.108 1.011-.582 2.653-.582 3.665 0Z"></path><path fill="#ffffff" d="M37.024 34.502c1.011.582 1.011 1.526 0 2.108-1.012.582-2.654.582-3.665 0-1.011-.582-1.011-1.526 0-2.108 1.011-.582 2.653-.582 3.665 0Zm15.277-9.33L37.719 33.56l.482.834 14.584-8.388-.484-.834Z"></path><path fill="#ffffff" stroke="#ffffff" d="m46.993 26.089 6.654-1.146-4.324 5.168c.189-1.691-.757-3.313-2.33-4.022Z" stroke-width=".36"></path><path fill="#ffffff" d="m43.488 19.937-6.057 13.797.886.387 6.056-13.798-.885-.386Z"></path><path fill="#ffffff" stroke="#ffffff" d="m39.76 23.812 4.676-4.854-.405 6.716c-.855-1.474-2.582-2.221-4.271-1.862Z" stroke-width=".36"></path><path fill="#ffffff" d="m61.953 30.061-23.985 3.483.14.955 23.985-3.486-.14-.952Z"></path><path fill="#ffffff" stroke="#ffffff" d="m56.68 28.957 6.608 1.387-5.936 3.209c.804-1.503.526-3.358-.672-4.596Z" stroke-width=".36"></path><path fill="#ffffff" stroke="#ffffff" d="m37.96 33.977 13.12-7.547m-13.207 7.497 5.792-13.134m-5.628 13.229 22.478-3.281" stroke-width="1.93"></path></svg></g></g><g opacity="1"><g id="3c34e85c-7a99-417f-a0f3-e05d71ffaee2" transform="translate(0 0)"><svg x="-489" y="465" width="81" height="93.28" viewBox="0 0 21.431 24.68"><path fill="#ff9800" d="m.267 5.103 12.538 7.237 5.224-.603 3.134-9.048-4.18-2.412-15.67 1.81z" fill-rule="evenodd"></path><path fill="#cc7a00" d="M.267 5.103v12.063l12.538 7.238V12.34zm12.538 7.237 5.224-.603v12.064l-5.224.603z" fill-rule="evenodd"></path><path fill="#995b00" d="m18.029 11.737 3.134-9.048v12.064l-3.134 9.048z" fill-rule="evenodd"></path><path fill="none" stroke="#331e00" d="m.267 5.103 12.538 7.237 5.224-.603 3.134-9.048m-3.134 9.048v12.064M12.805 12.34v12.064" stroke-width=".265"></path><path fill="none" stroke="#000000" d="m.267 17.166 12.538 7.238 5.224-.603 3.134-9.048V2.689L16.983.277l-15.67 1.81L.268 5.102z" stroke-width=".529"></path><path fill="none" d="M16.852 3.319c-.637-.01-1.269-.156-1.755-.437-.487-.28-.739-.645-.757-1.013l-3.498.035c.111.43-.12.884-.694 1.215-.363.21-.812.34-1.281.392-.625.067-1.226.241-1.71.52-1.272.736-1.277 1.926-.013 2.664.734.423 1.146.957 1.248 1.509.956.059 1.88.297 2.613.72 1.279.73 3.34.727 4.613-.008.484-.28.785-.626.903-.987.088-.27.314-.53.678-.74.573-.33 1.359-.464 2.104-.4l.06-2.02c-.636-.01-1.268-.156-1.754-.437-.487-.28-.739-.645-.757-1.013z"></path><path fill="#ffffff" d="M17.277 4.302c.467.27 1.056.427 1.664.471l-.05 1.693c-.73-.014-1.467.14-2.023.462-.404.234-.655.522-.754.824-.107.33-.382.647-.823.902-1.161.672-3.041.674-4.208.007-.722-.417-1.618-.665-2.554-.749-.145-.541-.574-1.06-1.296-1.478-1.152-.675-1.147-1.762.014-2.433.44-.255.988-.414 1.559-.476.521-.057 1.02-.203 1.424-.436.556-.322.823-.748.8-1.17l2.926-.03c.076.352.348.693.815.963.473.274 1.07.432 1.687.474.073.356.346.702.819.976z" fill-rule="evenodd"></path><g><path fill="#000000" d="M177.61 45.984h2.004v.43h-1.537v.925q.112-.038.223-.056.11-.02.222-.02.632 0 1.001.346.369.346.369.938 0 .609-.38.948-.378.336-1.068.336-.238 0-.485-.04-.246-.041-.508-.122v-.513q.227.124.47.184.242.061.513.061.437 0 .692-.23.255-.23.255-.624t-.255-.624q-.255-.23-.692-.23-.205 0-.41.045-.202.046-.414.142zm4.837 1.739q.367.078.571.326.208.248.208.612 0 .558-.385.864-.384.306-1.091.306-.238 0-.49-.048-.25-.046-.519-.14v-.492q.212.124.465.187t.528.063q.48 0 .73-.19.254-.189.254-.55 0-.334-.235-.521-.233-.19-.65-.19h-.44v-.42h.46q.377 0 .576-.148.2-.152.2-.435 0-.29-.207-.445-.205-.157-.589-.157-.21 0-.45.046-.24.045-.528.142v-.455q.29-.081.543-.122.256-.04.48-.04.582 0 .92.265.34.263.34.713 0 .313-.18.53-.18.216-.51.299z" transform="scale(1.31486 .76054) rotate(45 142.927 -178.732)" font-family="Interstate" font-size="5.176"></path></g></svg></g></g></g><g pointer-events="auto"></g><g pointer-events="auto"><g opacity="1"><g id="fddb1ef4-2cc5-410d-b46e-48b18d9fbb76" transform="translate(0 0)"><svg x="0" y="148" overflow="visible"><g transform="scale(0.5724334022399462) matrix(0.707 0.409 -0.707 0.409 0 0)"><circle cx="0" cy="0" fill="#000000" r="23"></circle><svg width="31" height="32" x="-15.5" y="-16" style="fill: rgb(255, 255, 255);"><svg xmlns="http://www.w3.org/2000/svg" width="31" height="32" viewBox="0 0 31 32"><path d="M16.125 32C9.232 32 3.75 27.964 1.232 22.196-1.589 15.785.661 5.517 5.678.982L5.482 6c.25-.321 2.161-.411 2.464 0C8.982 4.018 12.321 2.536 15 2.482c-1.018.857-3.375 3.982-3.179 5.571 1.304.411 3.304.429 4.357.5.321.179.268 1.268-.375 2.161 0 0-.839 1.161-3.107 1.571l.268 3.375-2.482-1.196c-.804 2.036 1.125 3.839 3.125 3.5 2.214-.375 3-1.821 4.554-1.732 1.536.089 2.143.946 1.946 1.75 0 0-.25.964-1.911.804-1.411 2.232-3.286 3.214-6.321 2.946 4.607 3.821 10.821.357 12.393-2.768 1.571-3.107.196-7.732-1.375-9.036 1.857.804 3.143 1.625 3.821 3.429.357-4-1.482-8.536-4.768-11.196C28.125 3.965 31.892 8.75 32 16.393S25.232 32 16.125 32z"></path></svg></svg></g></svg></g></g><g opacity="1"><g id="1a37b14e-2dc8-4d4a-bd70-e5cc1f1768ee" transform="translate(0 0)"><svg x="-608" y="629" overflow="visible"><g transform="scale(1.7469281074217107) matrix(0.707 0.409 -0.707 0.409 0 0)"><circle cx="0" cy="0" fill="#000000" r="23"></circle><svg width="23" height="32" x="-11.5" y="-16" style="fill: rgb(255, 255, 255);"><svg xmlns="http://www.w3.org/2000/svg" width="23" height="32" viewBox="0 0 23 32"><path d="M22.857 24.982c0 2.607-1.714 4.732-3.804 4.732H3.803c-2.089 0-3.804-2.125-3.804-4.732 0-4.696 1.161-10.125 5.839-10.125a7.972 7.972 0 0 0 11.178 0c4.679 0 5.839 5.429 5.839 10.125zM18.286 9.143c0 3.786-3.071 6.857-6.857 6.857s-6.857-3.071-6.857-6.857 3.071-6.857 6.857-6.857 6.857 3.071 6.857 6.857z"></path></svg></svg></g></svg></g></g></g><g pointer-events="auto"><g opacity="1"><g id="5e2692a4-9c27-449f-8d3d-0653effb0776" transform="translate(0 0)"><svg x="-176" y="231" overflow="visible"><text stroke="#ffffff" stroke-width="0" font-family="Open Sans" y="26.24" font-size="16pt" fill="#000000" font-weight="bold" transform="matrix(0.707 -0.409 0.707 0.409 0 0)" xml:space="preserve"><tspan x="8" dy="0">Webapp container</tspan></text><text font-family="Open Sans" y="26.24" font-size="16pt" fill="#000000" font-weight="bold" transform="matrix(0.707 -0.409 0.707 0.409 0 0)" xml:space="preserve"><tspan x="8" dy="0">Webapp container</tspan></text></svg></g></g><g opacity="1"><g id="7d225ac5-7844-443b-be66-7d0e1f60afd7" transform="translate(0 0)"><svg x="-580" y="533" overflow="visible"><text stroke="#ffffff" stroke-width="4" font-family="Open Sans" y="36.5" font-size="25pt" fill="#000000" font-weight="bold" transform="matrix(0.707 0.409 -0.707 0.409 0 0)" xml:space="preserve"><tspan x="8" dy="0">HTTP GET /</tspan></text><text font-family="Open Sans" y="36.5" font-size="25pt" fill="#000000" font-weight="bold" transform="matrix(0.707 0.409 -0.707 0.409 0 0)" xml:space="preserve"><tspan x="8" dy="0">HTTP GET /</tspan></text></svg></g></g><g opacity="1"><g id="59b462a8-ae20-4ba6-9953-77376ad6e12c" transform="translate(0 0)"><svg x="-23" y="295" overflow="visible"><text stroke="#ffffff" stroke-width="0" font-family="Open Sans" y="26.24" font-size="16pt" fill="#000000" font-weight="bold" transform="matrix(0.707 0.409 -0.707 0.409 0 0)" xml:space="preserve"><tspan x="8" dy="0">API</tspan></text><text font-family="Open Sans" y="26.24" font-size="16pt" fill="#000000" font-weight="bold" transform="matrix(0.707 0.409 -0.707 0.409 0 0)" xml:space="preserve"><tspan x="8" dy="0">API</tspan></text></svg></g></g><g opacity="1"><g id="6b37da14-b6bf-4e75-99b8-e46c9057e62c" transform="translate(0 0)"><svg x="81" y="325" overflow="visible"><text stroke="#ffffff" stroke-width="0" font-family="Open Sans" y="26.24" font-size="16pt" fill="#000000" font-weight="bold" transform="matrix(0.707 0.409 -0.707 0.409 0 0)" xml:space="preserve"><tspan x="8" dy="0">GET</tspan><tspan x="8" dy="1.1em">PUT</tspan><tspan x="8" dy="1.1em">DELETE</tspan><tspan x="8" dy="1.1em">POST</tspan></text><text font-family="Open Sans" y="26.24" font-size="16pt" fill="#000000" font-weight="bold" transform="matrix(0.707 0.409 -0.707 0.409 0 0)" xml:space="preserve"><tspan x="8" dy="0">GET</tspan><tspan x="8" dy="1.1em">PUT</tspan><tspan x="8" dy="1.1em">DELETE</tspan><tspan x="8" dy="1.1em">POST</tspan></text></svg></g></g><g opacity="1"><g id="f5fdd2d7-a10f-468c-aeef-1157bd916749" transform="translate(0 0)"><svg x="62" y="282" overflow="visible"><text stroke="#ffffff" stroke-width="0" font-family="Open Sans" y="135.68" font-size="112pt" fill="#000000" font-weight="bold" transform="matrix(0.707 0.409 -0.707 0.409 0 0)" xml:space="preserve"><tspan x="8" dy="0">{</tspan></text><text font-family="Open Sans" y="135.68" font-size="112pt" fill="#000000" font-weight="bold" transform="matrix(0.707 0.409 -0.707 0.409 0 0)" xml:space="preserve"><tspan x="8" dy="0">{</tspan></text></svg></g></g></g></g></svg>